<svg width="22" height="22" viewBox="0 0 22 22" fill="none" xmlns="http://www.w3.org/2000/svg">
<path d="M11 2.0625C6.072 2.0625 2.0625 6.072 2.0625 11C2.0625 15.928 6.072 19.9375 11 19.9375C15.928 19.9375 19.9375 15.928 19.9375 11C19.9375 6.072 15.928 2.0625 11 2.0625ZM15.6512 8.00433L9.87617 14.8793C9.81298 14.9549 9.73426 15.0159 9.64536 15.0583C9.55646 15.1007 9.45948 15.1235 9.361 15.125H9.34908C9.2528 15.125 9.1576 15.1047 9.06965 15.0656C8.98169 15.0264 8.90294 14.9692 8.8385 14.8977L6.3635 12.1477C6.254 12.0299 6.18918 11.8775 6.18028 11.717C6.17138 11.5564 6.21897 11.3978 6.31479 11.2687C6.41061 11.1395 6.54861 11.048 6.70485 11.01C6.8611 10.972 7.02572 10.9898 7.17017 11.0605C7.25267 11.1018 7.326 11.1586 7.38467 11.2273L9.33075 13.3907L14.5988 7.12067C14.7181 6.98837 14.8841 6.90755 15.0618 6.89522C15.2395 6.88289 15.4151 6.94002 15.5515 7.05458C15.6879 7.16913 15.7746 7.33217 15.7932 7.50933C15.8117 7.68649 15.7608 7.86396 15.6512 8.00433Z" fill="#188C43"/>
</svg>
