<svg width="14" height="14" viewBox="0 0 14 14" fill="none" xmlns="http://www.w3.org/2000/svg">
<path d="M7.92745 7.00116L10.5256 4.40357C10.6444 4.27965 10.7099 4.11416 10.7082 3.94253C10.7065 3.77089 10.6377 3.60675 10.5164 3.48523C10.3952 3.3637 10.2313 3.29446 10.0596 3.29231C9.88799 3.29017 9.72234 3.35529 9.59812 3.47374L6.99995 6.07132L4.40237 3.47374C4.34128 3.41269 4.26876 3.36426 4.18895 3.33124C4.10915 3.29821 4.02362 3.28122 3.93725 3.28125C3.85088 3.28128 3.76536 3.29832 3.68557 3.33139C3.60579 3.36447 3.5333 3.41294 3.47224 3.47403C3.34894 3.59741 3.2797 3.76472 3.27975 3.93915C3.27981 4.11359 3.34915 4.28085 3.47254 4.40416L6.07012 7.00174L3.47254 9.59932C3.41148 9.66038 3.36305 9.73286 3.33001 9.81263C3.29697 9.8924 3.27996 9.9779 3.27996 10.0642C3.27996 10.1506 3.29697 10.2361 3.33001 10.3159C3.36305 10.3956 3.41148 10.4681 3.47254 10.5292C3.53359 10.5902 3.60607 10.6386 3.68584 10.6717C3.76561 10.7047 3.85111 10.7217 3.93745 10.7217C4.0238 10.7217 4.10929 10.7047 4.18906 10.6717C4.26883 10.6386 4.34132 10.5902 4.40237 10.5292L6.99995 7.93099L9.59754 10.5286C9.65859 10.5896 9.73107 10.6381 9.81084 10.6711C9.89061 10.7041 9.97611 10.7211 10.0625 10.7211C10.1488 10.7211 10.2343 10.7041 10.3141 10.6711C10.3938 10.6381 10.4663 10.5896 10.5274 10.5286C10.5884 10.4675 10.6369 10.395 10.6699 10.3153C10.7029 10.2355 10.7199 10.15 10.7199 10.0637C10.7199 9.97731 10.7029 9.89182 10.6699 9.81205C10.6369 9.73227 10.5884 9.65979 10.5274 9.59874L7.92745 7.00116Z" fill="#3B3F46"/>
</svg>
