<svg width="20" height="20" viewBox="0 0 20 20" fill="none" xmlns="http://www.w3.org/2000/svg">
<path d="M11.3251 10.0017L15.0368 6.29082C15.2064 6.11379 15.3001 5.87738 15.2976 5.63218C15.2952 5.38699 15.1968 5.1525 15.0237 4.9789C14.8505 4.80529 14.6163 4.70637 14.3711 4.7033C14.1259 4.70024 13.8892 4.79327 13.7118 4.96248L10.0001 8.67332L6.28928 4.96248C6.20201 4.87527 6.09841 4.80609 5.9844 4.75891C5.87039 4.71173 5.74821 4.68746 5.62482 4.6875C5.50143 4.68754 5.37926 4.71188 5.26529 4.75913C5.15131 4.80639 5.04775 4.87563 4.96053 4.9629C4.78438 5.13916 4.68547 5.37817 4.68555 5.62736C4.68563 5.87655 4.78469 6.1155 4.96095 6.29165L8.67178 10.0025L4.96095 13.7133C4.87373 13.8005 4.80454 13.9041 4.75734 14.018C4.71014 14.132 4.68584 14.2541 4.68584 14.3775C4.68584 14.5008 4.71014 14.623 4.75734 14.7369C4.80454 14.8509 4.87373 14.9544 4.96095 15.0416C5.04817 15.1289 5.15171 15.1981 5.26567 15.2453C5.37963 15.2925 5.50177 15.3168 5.62512 15.3168C5.74846 15.3168 5.8706 15.2925 5.98456 15.2453C6.09852 15.1981 6.20206 15.1289 6.28928 15.0416L10.0001 11.33L13.7109 15.0408C13.7982 15.128 13.9017 15.1972 14.0157 15.2444C14.1296 15.2916 14.2518 15.3159 14.3751 15.3159C14.4985 15.3159 14.6206 15.2916 14.7346 15.2444C14.8485 15.1972 14.9521 15.128 15.0393 15.0408C15.1265 14.9536 15.1957 14.8501 15.2429 14.7361C15.2901 14.6221 15.3144 14.5 15.3144 14.3767C15.3144 14.2533 15.2901 14.1312 15.2429 14.0172C15.1957 13.9032 15.1265 13.7997 15.0393 13.7125L11.3251 10.0017Z" fill="#188C43"/>
</svg>
