<svg width="16" height="16" viewBox="0 0 16 16" fill="none" xmlns="http://www.w3.org/2000/svg">
<path d="M9.68661 6.31334L6.31328 9.68668C5.87995 9.25334 5.61328 8.66001 5.61328 8.00001C5.61328 6.68001 6.67995 5.61334 7.99995 5.61334C8.65995 5.61334 9.25328 5.88001 9.68661 6.31334Z" stroke="#3B3F46" stroke-width="1.5" stroke-linecap="round" stroke-linejoin="round"/>
<path d="M11.88 3.84669C10.7134 2.96669 9.38002 2.48669 8.00002 2.48669C5.64668 2.48669 3.45335 3.87336 1.92668 6.27336C1.32668 7.21336 1.32668 8.79336 1.92668 9.73336C2.45335 10.56 3.06668 11.2734 3.73335 11.8467" stroke="#3B3F46" stroke-width="1.5" stroke-linecap="round" stroke-linejoin="round"/>
<path d="M5.61328 13.02C6.37328 13.34 7.17995 13.5133 7.99995 13.5133C10.3533 13.5133 12.5466 12.1267 14.0733 9.72668C14.6733 8.78668 14.6733 7.20668 14.0733 6.26668C13.8533 5.92002 13.6133 5.59335 13.3666 5.28668" stroke="#3B3F46" stroke-width="1.5" stroke-linecap="round" stroke-linejoin="round"/>
<path d="M10.34 8.46667C10.1666 9.40668 9.39996 10.1733 8.45996 10.3467" stroke="#3B3F46" stroke-width="1.5" stroke-linecap="round" stroke-linejoin="round"/>
<path d="M6.31337 9.68665L1.33337 14.6666" stroke="#3B3F46" stroke-width="1.5" stroke-linecap="round" stroke-linejoin="round"/>
<path d="M14.6666 1.33331L9.68665 6.31331" stroke="#3B3F46" stroke-width="1.5" stroke-linecap="round" stroke-linejoin="round"/>
</svg>
