<svg width="12" height="17" viewBox="0 0 12 17" fill="none" xmlns="http://www.w3.org/2000/svg">
<path d="M11.3467 5.67358C11.3467 10.5569 7.48202 14.2545 6.13207 15.3971C5.86728 15.6212 5.47944 15.6212 5.21465 15.3971C3.8647 14.2545 0 10.5569 0 5.67358C0 2.5403 2.5401 7.76233e-05 5.67337 7.76233e-05C8.80662 7.76233e-05 11.3467 2.5403 11.3467 5.67358Z" fill="#6A90FF"/>
<path d="M9.31014 5.67375C9.31014 7.68194 7.68209 9.30996 5.67381 9.30996C3.66552 9.30996 2.03746 7.68194 2.03746 5.67375C2.03746 3.66538 3.66552 2.03736 5.67381 2.03736C7.68209 2.03736 9.31014 3.66538 9.31014 5.67375Z" fill="white"/>
<path d="M9.34119 15.7055C9.34119 16.4204 7.69909 17 5.67336 17C3.64762 17 2.00552 16.4204 2.00552 15.7055C2.00552 15.2303 2.73099 14.8149 3.81235 14.5897C4.27534 15.0607 4.68501 15.4272 4.97867 15.6759C5.17261 15.84 5.41927 15.9303 5.67336 15.9303C5.92744 15.9303 6.17409 15.84 6.36804 15.6759C6.66169 15.4272 7.07136 15.0607 7.53436 14.5897C8.61571 14.8149 9.34119 15.2303 9.34119 15.7055Z" fill="#6A90FF"/>
</svg>
