<svg width="24" height="24" viewBox="0 0 24 24" fill="none" xmlns="http://www.w3.org/2000/svg">
<g clip-path="url(#clip0_537_23756)">
<path d="M18 1.875C16.3433 1.875 14.8433 2.54663 13.7576 3.63263L12.2655 5.118C12.1189 5.26462 11.8819 5.26462 11.7353 5.118C11.7353 5.118 10.2461 3.62925 10.2431 3.63263C9.15675 2.54663 7.65675 1.875 6 1.875C2.68613 1.875 0 4.56113 0 7.875C0 9.12675 0.384 10.2885 1.03988 11.25C1.03988 11.25 1.31512 11.6865 1.64062 12.0116C1.96613 12.3367 10.9395 21.3105 10.9395 21.3105C11.2324 21.6034 11.6164 21.75 12 21.75C12.3836 21.75 12.7676 21.6034 13.0605 21.3105C13.0605 21.3105 22.0343 12.3367 22.3594 12.0116C22.6845 11.6865 22.9601 11.25 22.9601 11.25C23.616 10.2885 24 9.12675 24 7.875C24 4.56113 21.3139 1.875 18 1.875ZM21.375 8.25C21.1676 8.25 21 8.08238 21 7.875C21 6.21825 19.6567 4.875 18 4.875C17.7926 4.875 17.625 4.70738 17.625 4.5C17.625 4.29262 17.7926 4.125 18 4.125C20.0707 4.125 21.75 5.80425 21.75 7.875C21.75 8.08238 21.5824 8.25 21.375 8.25Z" fill="#E32E2E"/>
</g>
<defs>
<clipPath id="clip0_537_23756">
<rect width="24" height="24" fill="white"/>
</clipPath>
</defs>
</svg>
