<svg width="14" height="16" viewBox="0 0 14 16" fill="none" xmlns="http://www.w3.org/2000/svg">
<path d="M13.4648 5.3375C12.6773 1.8725 9.65483 0.3125 6.99983 0.3125C6.99983 0.3125 6.99983 0.3125 6.99233 0.3125C4.34483 0.3125 1.31483 1.865 0.527327 5.33C-0.350173 9.2 2.01983 12.4775 4.16483 14.54C4.95983 15.305 5.97983 15.6875 6.99983 15.6875C8.01983 15.6875 9.03983 15.305 9.82733 14.54C11.9723 12.4775 14.3423 9.2075 13.4648 5.3375ZM6.99983 9.095C5.69483 9.095 4.63733 8.0375 4.63733 6.7325C4.63733 5.4275 5.69483 4.37 6.99983 4.37C8.30483 4.37 9.36233 5.4275 9.36233 6.7325C9.36233 8.0375 8.30483 9.095 6.99983 9.095Z" fill="#333333"/>
</svg>
